<?xml version="1.0"?>
<svg width="8530.7998" height="4169.3867" xmlns="http://www.w3.org/2000/svg" xmlns:svg="http://www.w3.org/2000/svg" version="1.1">
 <defs id="defs1">
  <clipPath clipPathUnits="userSpaceOnUse" id="clipPath2">
   <path d="m-247.84,2845.45l6398.1,0l0,-3127.03l-6398.1,0l0,3127.03z" id="path2" transform="translate(1 -1)"/>
  </clipPath>
  <clipPath clipPathUnits="userSpaceOnUse" id="clipPath4">
   <path d="m-407.64,2980.61l6398.1,0l0,-3127.03l-6398.1,0l0,3127.03z" id="path4" transform="translate(1 -1)"/>
  </clipPath>
  <clipPath clipPathUnits="userSpaceOnUse" id="clipPath6">
   <path d="m-678.98,3001.65l6398.1,0l0,-3127.03l-6398.1,0l0,3127.03z" id="path6" transform="translate(1 -1)"/>
  </clipPath>
  <clipPath clipPathUnits="userSpaceOnUse" id="clipPath8">
   <path d="m-714.39,3045.45l6398.1,0l0,-3127.03l-6398.1,0l0,3127.03z" id="path8" transform="translate(1 -1)"/>
  </clipPath>
  <clipPath clipPathUnits="userSpaceOnUse" id="clipPath10">
   <path d="m-879.32,3001.65l6398.1,0l0,-3127.03l-6398.1,0l0,3127.03z" id="path10" transform="translate(1 -1)"/>
  </clipPath>
  <clipPath clipPathUnits="userSpaceOnUse" id="clipPath12">
   <path d="m-1254.17,2893.35l6398.1,0l0,-3127.03l-6398.1,0l0,3127.03z" id="path12" transform="translate(1 -1)"/>
  </clipPath>
  <clipPath clipPathUnits="userSpaceOnUse" id="clipPath14">
   <path d="m-1338.33,3001.65l6398.1,0l0,-3127.03l-6398.1,0l0,3127.03z" id="path14" transform="translate(1 -1)"/>
  </clipPath>
  <clipPath clipPathUnits="userSpaceOnUse" id="clipPath16">
   <path d="m-1515.75,2845.45l6398.1,0l0,-3127.03l-6398.1,0l0,3127.03z" id="path16" transform="translate(1 -1)"/>
  </clipPath>
  <clipPath clipPathUnits="userSpaceOnUse" id="clipPath18">
   <path d="m-1693.68,3001.65l6398.1,0l0,-3127.03l-6398.1,0l0,3127.03z" id="path18" transform="translate(1 -1)"/>
  </clipPath>
  <clipPath clipPathUnits="userSpaceOnUse" id="clipPath20">
   <path d="m-1982.64,3001.65l6398.1,0l0,-3127.03l-6398.1,0l0,3127.03z" id="path20" transform="translate(1 -1)"/>
  </clipPath>
  <clipPath clipPathUnits="userSpaceOnUse" id="clipPath22">
   <path d="m-2251.08,2980.61l6398.1,0l0,-3127.03l-6398.1,0l0,3127.03z" id="path22" transform="translate(1 -1)"/>
  </clipPath>
  <clipPath clipPathUnits="userSpaceOnUse" id="clipPath24">
   <path d="m-2564,2907.04l6398.1,0l0,-3127.03l-6398.1,0l0,3127.03z" id="path24" transform="translate(1 -1)"/>
  </clipPath>
  <clipPath clipPathUnits="userSpaceOnUse" id="clipPath26">
   <path d="m-2741.6,2953.92l6398.1,0l0,-3127.03l-6398.1,0l0,3127.03z" id="path26" transform="translate(1 -1)"/>
  </clipPath>
  <clipPath clipPathUnits="userSpaceOnUse" id="clipPath28">
   <path d="m-2931.5,2905.67l6398.1,0l0,-3127.03l-6398.1,0l0,3127.03z" id="path28" transform="translate(1 -1)"/>
  </clipPath>
  <clipPath clipPathUnits="userSpaceOnUse" id="clipPath30">
   <path d="m-3043.73,2921.41l6398.1,0l0,-3127.03l-6398.1,0l0,3127.03z" id="path30" transform="translate(1 -1)"/>
  </clipPath>
  <clipPath clipPathUnits="userSpaceOnUse" id="clipPath32">
   <path d="m-3347.41,3001.65l6398.1,0l0,-3127.03l-6398.1,0l0,3127.03z" id="path32" transform="translate(1 -1)"/>
  </clipPath>
  <clipPath clipPathUnits="userSpaceOnUse" id="clipPath34">
   <path d="m-3487.54,2953.92l6398.1,0l0,-3127.03l-6398.1,0l0,3127.03z" id="path34" transform="translate(1 -1)"/>
  </clipPath>
  <clipPath clipPathUnits="userSpaceOnUse" id="clipPath36">
   <path d="m0,3127.03l6398.1,0l0,-3127.03l-6398.1,0l0,3127.03z" id="path36" transform="translate(1 -1)"/>
  </clipPath>
  <clipPath clipPathUnits="userSpaceOnUse" id="clipPath38">
   <path d="m-4063.35,2854.82l6398.1,0l0,-3127.03l-6398.1,0l0,3127.03z" id="path38" transform="translate(1 -1)"/>
  </clipPath>
  <clipPath clipPathUnits="userSpaceOnUse" id="clipPath40">
   <path d="m-4249.33,2976.5l6398.1,0l0,-3127.03l-6398.1,0l0,3127.03z" id="path40" transform="translate(1 -1)"/>
  </clipPath>
  <clipPath clipPathUnits="userSpaceOnUse" id="clipPath42">
   <path d="m-4411.71,2958.54l6398.1,0l0,-3127.03l-6398.1,0l0,3127.03z" id="path42" transform="translate(1 -1)"/>
  </clipPath>
  <clipPath clipPathUnits="userSpaceOnUse" id="clipPath44">
   <path d="m-4679.8,2907.04l6398.1,0l0,-3127.03l-6398.1,0l0,3127.03z" id="path44" transform="translate(1 -1)"/>
  </clipPath>
  <clipPath clipPathUnits="userSpaceOnUse" id="clipPath46">
   <path d="m-4823.01,2980.61l6398.1,0l0,-3127.03l-6398.1,0l0,3127.03z" id="path46" transform="translate(1 -1)"/>
  </clipPath>
  <clipPath clipPathUnits="userSpaceOnUse" id="clipPath48">
   <path d="m-5044.39,3001.65l6398.1,0l0,-3127.03l-6398.1,0l0,3127.03z" id="path48" transform="translate(1 -1)"/>
  </clipPath>
  <clipPath clipPathUnits="userSpaceOnUse" id="clipPath50">
   <path d="m-5361.39,2820.13l6398.1,0l0,-3127.03l-6398.1,0l0,3127.03z" id="path50" transform="translate(1 -1)"/>
  </clipPath>
  <clipPath clipPathUnits="userSpaceOnUse" id="clipPath52">
   <path d="m-5679.09,2893.35l6398.1,0l0,-3127.03l-6398.1,0l0,3127.03z" id="path52" transform="translate(1 -1)"/>
  </clipPath>
  <clipPath clipPathUnits="userSpaceOnUse" id="clipPath54">
   <path d="m-5836.82,3005.93l6398.1,0l0,-3127.03l-6398.1,0l0,3127.03z" id="path54" transform="translate(1 -1)"/>
  </clipPath>
  <clipPath clipPathUnits="userSpaceOnUse" id="clipPath56">
   <path d="m-5938.45,3001.65l6398.1,0l0,-3127.03l-6398.1,0l0,3127.03z" id="path56" transform="translate(1 -1)"/>
  </clipPath>
  <clipPath clipPathUnits="userSpaceOnUse" id="clipPath58">
   <path d="m-6206.89,2980.61l6398.1,0l0,-3127.03l-6398.1,0l0,3127.03z" id="path58" transform="translate(1 -1)"/>
  </clipPath>
  <clipPath clipPathUnits="userSpaceOnUse" id="clipPath60">
   <path d="m-2190.6,1795.28l6398.1,0l0,-3127.03l-6398.1,0l0,3127.03z" id="path60" transform="translate(1 -1)"/>
  </clipPath>
  <clipPath clipPathUnits="userSpaceOnUse" id="clipPath62">
   <path d="m-2674.58,2085.81l6398.1,0l0,-3127.03l-6398.1,0l0,3127.03z" id="path62" transform="translate(1 -1)"/>
  </clipPath>
  <clipPath clipPathUnits="userSpaceOnUse" id="clipPath64">
   <path d="m-3278.34,1795.28l6398.1,0l0,-3127.03l-6398.1,0l0,3127.03z" id="path64" transform="translate(1 -1)"/>
  </clipPath>
  <clipPath clipPathUnits="userSpaceOnUse" id="clipPath66">
   <path d="m-3743.17,2085.81l6398.1,0l0,-3127.03l-6398.1,0l0,3127.03z" id="path66" transform="translate(1 -1)"/>
  </clipPath>
  <clipPath clipPathUnits="userSpaceOnUse" id="clipPath68">
   <path d="m-4196.51,2133.13l6398.1,0l0,-3127.03l-6398.1,0l0,3127.03z" id="path68" transform="translate(1 -1)"/>
  </clipPath>
  <clipPath clipPathUnits="userSpaceOnUse" id="clipPath70">
   <path d="m-4702.48,2158.56l6398.1,0l0,-3127.03l-6398.1,0l0,3127.03z" id="path70" transform="translate(1 -1)"/>
  </clipPath>
  <clipPath clipPathUnits="userSpaceOnUse" id="clipPath72">
   <path d="m-5568.91,2085.81l6398.1,0l0,-3127.03l-6398.1,0l0,3127.03z" id="path72" transform="translate(1 -1)"/>
  </clipPath>
  <clipPath clipPathUnits="userSpaceOnUse" id="clipPath74">
   <path d="m-6289.1,2344.46l6398.1,0l0,-3127.03l-6398.1,0l0,3127.03z" id="path74" transform="translate(1 -1)"/>
  </clipPath>
  <clipPath clipPathUnits="userSpaceOnUse" id="clipPath76">
   <path d="m-967.93,2281.58l6398.1,0l0,-3127.03l-6398.1,0l0,3127.03z" id="path76" transform="translate(1 -1)"/>
  </clipPath>
  <clipPath clipPathUnits="userSpaceOnUse" id="clipPath78">
   <path d="m-1040.23,1350.57l6398.1,0l0,-3127.03l-6398.1,0l0,3127.03z" id="path78" transform="translate(1 -1)"/>
  </clipPath>
  <clipPath clipPathUnits="userSpaceOnUse" id="clipPath80">
   <path d="m-1301.1,977.77l6398.1,0l0,-3127.03l-6398.1,0l0,3127.03z" id="path80" transform="translate(1 -1)"/>
  </clipPath>
  <clipPath clipPathUnits="userSpaceOnUse" id="clipPath82">
   <path d="m-1301.1,597.52l6398.1,0l0,-3127.03l-6398.1,0l0,3127.03z" id="path82" transform="translate(1 -1)"/>
  </clipPath>
  <clipPath clipPathUnits="userSpaceOnUse" id="clipPath84">
   <path d="m-2267.24,684.86l6398.1,0l0,-3127.03l-6398.1,0l0,3127.03z" id="path84" transform="translate(1 -1)"/>
  </clipPath>
  <clipPath clipPathUnits="userSpaceOnUse" id="clipPath86">
   <path d="m-2084.42,653.53l6398.1,0l0,-3127.03l-6398.1,0l0,3127.03z" id="path86" transform="translate(1 -1)"/>
  </clipPath>
  <clipPath clipPathUnits="userSpaceOnUse" id="clipPath88">
   <path d="m-2252.34,717.9l6398.1,0l0,-3127.03l-6398.1,0l0,3127.03z" id="path88" transform="translate(1 -1)"/>
  </clipPath>
 </defs>
 <g class="layer">
  <title>Layer 1</title>
  <g id="layer-MC0">
   <path clip-path="url(#clipPath2)" d="m331.46,3792.94l-82.57,0c-3.2,78.17 -15.52,136.41 -36.96,174.73l119.53,0l0,-174.73zm43.12,174.73l34.89,0l0,98.55l-42.89,0l0,-65.01l-181.35,0l0,65.01l-42.88,0l0,-98.55l21.44,0c28.13,-39.84 42.2,-105.47 42.2,-196.85l0,-11.64l168.57,0l0.01,208.49z" fill="#1b2e37" fill-rule="nonzero" id="path1"/>
   <path clip-path="url(#clipPath4)" d="m544.52,3973.16c20.53,0 37.19,-7.8 49.96,-23.39c12.77,-15.59 19.16,-38.73 19.16,-69.47c0,-30.87 -6.39,-54.09 -19.16,-69.68c-12.77,-15.59 -29.43,-23.37 -49.96,-23.37c-20.53,0 -37.19,7.79 -49.96,23.37c-12.77,15.6 -19.16,38.81 -19.16,69.69c0,30.72 6.39,53.87 19.16,69.45c12.77,15.59 29.43,23.39 49.96,23.39m0,-219.45c34.52,0 62.08,11.03 82.69,33.08c20.6,22.05 30.91,53.23 30.91,93.52c0,40.15 -10.31,71.29 -30.91,93.41c-20.61,22.13 -48.17,33.2 -82.69,33.2c-34.37,0 -61.85,-11.07 -82.47,-33.19c-20.6,-22.13 -30.91,-53.28 -30.91,-93.43c0,-40.29 10.31,-71.47 30.91,-93.52c20.61,-22.05 48.09,-33.08 82.47,-33.08" fill="#1b2e37" fill-rule="nonzero" id="path3"/>
   <path clip-path="url(#clipPath6)" d="m906.31,4001.21l-51.32,0l-77.56,-118.16l-28.07,29.43l0,88.73l-43.11,0l0,-242.03l43.11,0l0,103.33l93.31,-103.33l54.29,0l-91.71,95.35l101.05,146.68z" fill="#1b2e37" fill-rule="nonzero" id="path5"/>
   <path clip-path="url(#clipPath8)" d="m953.53,4059.61c21.29,0 38.69,-19.47 52.24,-58.4l-47.21,-124.55l-44.27,-117.48l46.55,0l37.63,111.77l26.47,77.56l64.11,-189.33l46.53,0l-91.48,242.03c-8.83,23.12 -16.31,40.95 -22.47,53.49c-6.16,12.55 -14.23,23.12 -24.19,31.72c-9.96,8.59 -22.16,12.88 -36.6,12.88c-10.81,0 -20.08,-1.07 -27.84,-3.19l0,-39.69c6.69,2.12 13.53,3.19 20.53,3.19" fill="#1b2e37" fill-rule="nonzero" id="path7"/>
   <path clip-path="url(#clipPath10)" d="m1173.43,4001.21l0,-242.03l62.73,0l72.31,188.19l72.55,-188.19l62.51,0l0,242.03l-42.89,0l0,-189.57l-73,189.57l-38.32,0l-72.76,-189.57l0,189.57l-43.12,0z" fill="#1b2e37" fill-rule="nonzero" id="path9"/>
   <path clip-path="url(#clipPath12)" d="m1673.23,3856.82c-3.51,-23.27 -11.33,-40.68 -23.49,-52.24c-12.17,-11.56 -27.07,-17.33 -44.72,-17.33c-17.17,0 -31.93,5.73 -44.24,17.23c-12.32,11.48 -20.16,28.92 -23.51,52.35l135.96,0zm-63.41,150.11c-35.59,0 -64.17,-11.15 -85.77,-33.43c-21.6,-22.28 -32.4,-53.35 -32.4,-93.19c0,-39.53 10.47,-70.52 31.37,-92.95c20.91,-22.44 48.24,-33.65 82,-33.65c34.53,0 62.09,11.03 82.69,33.07c20.61,22.05 30.92,53.24 30.92,93.53l0,10.27l-182.27,0c1.83,27.99 9.55,48.73 23.15,62.27c13.61,13.55 30.37,20.31 50.31,20.31c15.05,0 28.63,-3.84 40.72,-11.52c12.08,-7.67 18.44,-18.59 19.04,-32.73l44.48,0c-3.35,24.95 -14.63,44.17 -33.87,57.71c-19.24,13.55 -42.69,20.32 -70.37,20.32" fill="#1b2e37" fill-rule="nonzero" id="path11"/>
   <path clip-path="url(#clipPath14)" d="m1785.44,4001.21l0,-242.03l43.12,0l0,100.37l110.17,0l0,-100.37l42.88,0l0,242.03l-42.88,0l0,-107.89l-110.17,0l0,107.89l-43.12,0z" fill="#1b2e37" fill-rule="nonzero" id="path13"/>
   <path clip-path="url(#clipPath16)" d="m2022,3792.94l0,-33.76l197.09,0l0,33.76l-77.11,0l0,208.27l-42.88,0l0,-208.27l-77.11,0z" fill="#1b2e37" fill-rule="nonzero" id="path15"/>
   <path clip-path="url(#clipPath18)" d="m2259.24,4001.21l0,-242.03l43.12,0l0,184.08l108.35,-184.08l46.31,0l0,242.03l-43.11,0l0,-184.09l-108.36,184.09l-46.31,0z" fill="#1b2e37" fill-rule="nonzero" id="path17"/>
   <path clip-path="url(#clipPath20)" d="m2644.52,4001.21l0,-242.03l196.17,0l0,242.03l-42.88,0l0,-208.27l-110.17,0l0,208.27l-43.12,0z" fill="#1b2e37" fill-rule="nonzero" id="path19"/>
   <path clip-path="url(#clipPath22)" d="m3002.44,3973.16c20.53,0 37.19,-7.8 49.96,-23.39c12.77,-15.59 19.16,-38.73 19.16,-69.47c0,-30.87 -6.39,-54.09 -19.16,-69.68c-12.77,-15.59 -29.43,-23.37 -49.96,-23.37c-20.53,0 -37.19,7.79 -49.96,23.37c-12.77,15.6 -19.16,38.81 -19.16,69.69c0,30.72 6.39,53.87 19.16,69.45c12.77,15.59 29.43,23.39 49.96,23.39m0,-219.45c34.52,0 62.08,11.03 82.69,33.08c20.6,22.05 30.91,53.23 30.91,93.52c0,40.15 -10.31,71.29 -30.91,93.41c-20.61,22.13 -48.17,33.2 -82.69,33.2c-34.37,0 -61.85,-11.07 -82.47,-33.19c-20.6,-22.13 -30.91,-53.28 -30.91,-93.43c0,-40.29 10.31,-71.47 30.91,-93.52c20.61,-22.05 48.09,-33.08 82.47,-33.08" fill="#1b2e37" fill-rule="nonzero" id="path21"/>
   <path clip-path="url(#clipPath24)" d="m3419.67,3875.07c29.8,13.53 44.71,33.29 44.71,59.31c0,20.84 -9.08,38.13 -27.25,51.89c-18.17,13.77 -43.77,20.65 -76.76,20.65c-30.27,0 -54.91,-6.59 -73.92,-19.73c-19,-13.16 -29.41,-29.47 -31.24,-48.93l44.25,0c0,8.67 5.4,16.65 16.19,23.96c10.8,7.29 25.4,10.95 43.8,10.95c18.87,0 33.68,-3.61 44.48,-10.84c10.8,-7.21 16.2,-16.69 16.2,-28.4c0,-9.88 -2.81,-18.09 -8.44,-24.64c-5.63,-6.53 -12.59,-10.91 -20.87,-13.11c-8.29,-2.21 -21.41,-3.32 -39.35,-3.32l-15.52,0l0,-32.61l15.52,0c26.76,0 43.79,-3.61 51.09,-10.84c7.29,-7.21 10.95,-15.47 10.95,-24.75c0,-24.95 -17.11,-37.41 -51.32,-37.41c-33.61,0 -51.56,9.2 -53.84,27.61l-44.25,0c0,-17.8 8.75,-32.44 26.23,-43.92c17.49,-11.48 40.84,-17.23 70.04,-17.23c30.71,0 54.67,6.55 71.85,19.61c17.19,13.09 25.77,29.89 25.77,50.41c0,23.12 -12.77,40.23 -38.32,51.33" fill="#1b2e37" fill-rule="nonzero" id="path23"/>
   <path clip-path="url(#clipPath26)" d="m3656.46,3937.57l0,-53.61l-29.43,0c-62.36,0 -93.53,16.96 -93.53,50.88c0,12.31 4.57,21.77 13.69,28.39c9.12,6.63 21.44,9.93 36.96,9.93c14.13,0 27.83,-3.2 41.05,-9.59c13.24,-6.39 23.65,-15.05 31.25,-26m0,38.77c-21.89,20.39 -50.11,30.57 -84.63,30.57c-24.04,0 -43.8,-6.51 -59.31,-19.51c-15.52,-13 -23.28,-29.77 -23.28,-50.31c0,-56.57 48.75,-84.85 146.23,-84.85l20.99,0c0,-17.33 -0.91,-29.92 -2.73,-37.76c-1.83,-7.83 -6.93,-14.32 -15.28,-19.49c-8.37,-5.17 -21.68,-7.76 -39.92,-7.76c-38.33,0 -58.11,13.68 -59.32,41.05l-42.88,0c3.19,-49.72 38.01,-74.59 104.48,-74.59c31.01,0 55.2,6.16 72.53,18.48c17.33,12.32 26,36.51 26,72.53l0,156.49l-42.88,0l0,-24.87z" fill="#1b2e37" fill-rule="nonzero" id="path25"/>
   <path clip-path="url(#clipPath28)" d="m3909.67,3873.24l0,-80.31l-62.05,0c-32.69,0 -49.04,12.79 -49.04,38.33c0,27.97 20.23,41.97 60.68,41.97l50.41,0zm-68.67,-114.07l111.79,0l0,242.04l-43.12,0l0,-94.45l-38.32,0c-11.87,0 -21.72,3.17 -29.55,9.48c-7.83,6.31 -15.4,16.91 -22.69,31.81l-26.24,53.16l-49.49,0l32.84,-60.68c10.64,-20.37 24.79,-33.45 42.44,-39.24c-43.04,-8.67 -64.56,-32.55 -64.56,-71.63c0,-21.75 7.67,-38.93 23.04,-51.55c15.36,-12.63 36.64,-18.95 63.87,-18.95" fill="#1b2e37" fill-rule="nonzero" id="path27"/>
   <path clip-path="url(#clipPath30)" d="m4059.31,3894.22l0,73.45l56.35,0c36.19,0 54.29,-12.16 54.29,-36.51c0,-24.63 -19.32,-36.95 -57.95,-36.95l-52.69,0zm0,-101.28l0,67.75l50.87,0c17.95,0 30.84,-2.61 38.67,-7.87c7.83,-5.24 11.75,-13.88 11.75,-25.89c0,-11.71 -4.07,-20.31 -12.2,-25.77c-8.15,-5.48 -21.95,-8.21 -41.4,-8.21l-47.68,0zm70.03,208.27l-113.15,0l0,-242.03l98.09,0c59.61,0 89.43,21.37 89.43,64.09c0,25.4 -10.51,42.81 -31.48,52.24c28.12,8.52 42.19,27.83 42.19,57.95c0,20.52 -7.6,36.95 -22.8,49.27c-15.21,12.32 -35.97,18.48 -62.28,18.48" fill="#1b2e37" fill-rule="nonzero" id="path29"/>
   <path clip-path="url(#clipPath32)" d="m4464.21,4001.21l-51.32,0l-77.56,-118.16l-28.07,29.43l0,88.73l-43.11,0l0,-242.03l43.11,0l0,103.33l93.31,-103.33l54.29,0l-91.71,95.35l101.05,146.68z" fill="#1b2e37" fill-rule="nonzero" id="path31"/>
   <path clip-path="url(#clipPath34)" d="m4651.05,3937.57l0,-53.61l-29.43,0c-62.36,0 -93.53,16.96 -93.53,50.88c0,12.31 4.56,21.77 13.69,28.39c9.12,6.63 21.44,9.93 36.95,9.93c14.15,0 27.84,-3.2 41.07,-9.59c13.23,-6.39 23.64,-15.05 31.25,-26m0,38.77c-21.91,20.39 -50.12,30.57 -84.64,30.57c-24.03,0 -43.79,-6.51 -59.31,-19.51c-15.51,-13 -23.27,-29.77 -23.27,-50.31c0,-56.57 48.75,-84.85 146.23,-84.85l20.99,0c0,-17.33 -0.92,-29.92 -2.73,-37.76c-1.83,-7.83 -6.92,-14.32 -15.29,-19.49c-8.36,-5.17 -21.67,-7.76 -39.92,-7.76c-38.32,0 -58.09,13.68 -59.31,41.05l-42.89,0c3.2,-49.72 38.01,-74.59 104.48,-74.59c31.03,0 55.2,6.16 72.55,18.48c17.33,12.32 26,36.51 26,72.53l0,156.49l-42.88,0l0,-24.87z" fill="#1b2e37" fill-rule="nonzero" id="path33"/>
   <path clip-path="url(#clipPath36)" d="m5145.12,3896.96l-279.21,0l0,-33.53l279.21,0l0,33.53z" fill="#1b2e37" fill-rule="nonzero" id="path35"/>
   <path clip-path="url(#clipPath38)" d="m5418.8,3805.44c-24.31,0 -41.59,12.61 -50.93,30.84c-7.47,13.55 -11.21,29.89 -11.21,48.12c0,37.37 18.23,91.12 63.08,91.12c45.32,0 62.13,-43.92 62.13,-85.51c0,-36.92 -14.48,-84.57 -63.07,-84.57m80.83,-107c-11.68,4.21 -32.24,7.95 -47.19,10.28c-36.44,5.61 -63.08,17.76 -80.37,42.52c-14.48,20.56 -22.89,50.92 -24.76,74.76l1.4,0c14.48,-32.71 46.25,-50.93 78.49,-50.93c55.6,0 96.27,39.72 96.27,111.67c0,73.83 -38.32,119.63 -104.67,119.63c-79.44,0 -105.6,-76.17 -105.6,-151.39c0,-51.4 10.75,-93.45 35.04,-125.23c21.96,-31.31 53.27,-45.8 97.19,-53.27c18.23,-2.8 40.65,-6.53 56.08,-12.15l-1.88,34.11z" fill="#1b2e37" fill-rule="nonzero" id="path37"/>
   <path clip-path="url(#clipPath40)" d="m5666.77,3967.68l52.47,0c38.63,0 57.95,-13.47 57.95,-40.37c0,-26.77 -19.32,-40.15 -57.95,-40.15l-52.47,0l0,80.52zm0,-114.05l54.29,0c31.79,0 56.45,6.61 74.03,19.84c17.56,13.23 26.35,31.19 26.35,53.84c0,22.81 -8.79,40.83 -26.35,54.07c-17.57,13.23 -42.24,19.84 -74.03,19.84l-97.17,0l0,-208.27l-77.11,0l0,-33.76l119.99,0l0,94.44z" fill="#1b2e37" fill-rule="nonzero" id="path39"/>
   <path clip-path="url(#clipPath42)" d="m5883.29,3942.73c18.4,19.61 39.53,29.43 63.41,29.43c18.55,0 33.31,-7.95 44.25,-23.84c10.95,-15.89 16.43,-39.59 16.43,-71.05c0,-29.81 -5.17,-52.44 -15.51,-67.87c-10.35,-15.44 -24.79,-23.16 -43.35,-23.16c-23.88,0.01 -45.63,13.84 -65.24,41.52l0,114.97zm0,-155.57c19.16,-22.96 42.2,-34.45 69.12,-34.45c31.63,0 56.11,11.23 73.45,33.65c17.33,22.43 26,52.73 26,90.91c0,39.69 -9.69,71.05 -29.08,94.09c-19.39,23.04 -43.84,34.56 -73.35,34.56c-26.15,0 -48.2,-8.13 -66.15,-24.41l0,111.79l-43.11,0l0,-335.11l43.11,0l0,28.97z" fill="#1b2e37" fill-rule="nonzero" id="path41"/>
   <path clip-path="url(#clipPath44)" d="m6240.73,3875.07c29.8,13.53 44.72,33.29 44.72,59.31c0,20.84 -9.09,38.13 -27.27,51.89c-18.17,13.77 -43.76,20.65 -76.76,20.65c-30.27,0 -54.91,-6.59 -73.91,-19.73c-19.01,-13.16 -29.43,-29.47 -31.25,-48.93l44.25,0c0,8.67 5.4,16.65 16.2,23.96c10.8,7.29 25.39,10.95 43.8,10.95c18.85,0 33.68,-3.61 44.48,-10.84c10.79,-7.21 16.2,-16.69 16.2,-28.4c0,-9.88 -2.83,-18.09 -8.45,-24.64c-5.61,-6.53 -12.59,-10.91 -20.87,-13.11c-8.28,-2.21 -21.4,-3.32 -39.35,-3.32l-15.51,0l0,-32.61l15.51,0c26.76,0 43.79,-3.61 51.09,-10.84c7.31,-7.21 10.95,-15.47 10.95,-24.75c0,-24.95 -17.11,-37.41 -51.32,-37.41c-33.61,0 -51.56,9.2 -53.84,27.61l-44.25,0c0,-17.8 8.75,-32.44 26.24,-43.92c17.48,-11.48 40.83,-17.23 70.03,-17.23c30.72,0 54.67,6.55 71.87,19.61c17.17,13.09 25.76,29.89 25.76,50.41c0,23.12 -12.77,40.23 -38.32,51.33" fill="#1b2e37" fill-rule="nonzero" id="path43"/>
   <path clip-path="url(#clipPath46)" d="m6431.68,3973.16c20.53,0 37.19,-7.8 49.96,-23.39c12.76,-15.59 19.16,-38.73 19.16,-69.47c0,-30.87 -6.4,-54.09 -19.16,-69.68c-12.77,-15.59 -29.43,-23.37 -49.96,-23.37c-20.53,0 -37.19,7.79 -49.96,23.37c-12.77,15.6 -19.16,38.81 -19.16,69.69c0,30.72 6.39,53.87 19.16,69.45c12.77,15.59 29.43,23.39 49.96,23.39m0,-219.45c34.52,0 62.08,11.03 82.69,33.08c20.6,22.05 30.91,53.23 30.91,93.52c0,40.16 -10.31,71.29 -30.91,93.41c-20.61,22.13 -48.17,33.2 -82.69,33.2c-34.37,0 -61.87,-11.07 -82.47,-33.19c-20.6,-22.13 -30.91,-53.28 -30.91,-93.43c0,-40.29 10.29,-71.47 30.91,-93.52c20.6,-22.05 48.09,-33.08 82.47,-33.08" fill="#1b2e37" fill-rule="nonzero" id="path45"/>
   <path clip-path="url(#clipPath48)" d="m6726.85,4001.21l0,-242.03l43.11,0l0,184.08l108.36,-184.08l46.31,0l0,242.03l-43.12,0l0,-184.09l-108.35,184.09l-46.31,0z" fill="#1b2e37" fill-rule="nonzero" id="path47"/>
   <path clip-path="url(#clipPath50)" d="m7149.52,3759.18l184.55,0l0,242.03l-42.89,0l0,-208.27l-98.53,0l0,126.15c0,34.53 -5.48,57.23 -16.43,68.09c-10.96,10.88 -26.24,16.31 -45.85,16.31c-11.72,0 -21.37,-0.76 -28.97,-2.28l0,-34.67c8.21,2.28 16.2,3.43 23.95,3.43c9.43,0 15.83,-3.35 19.17,-10.04c3.33,-6.69 5.01,-20 5.01,-39.92l0,-160.83z" fill="#1b2e37" fill-rule="nonzero" id="path49"/>
   <path clip-path="url(#clipPath52)" d="m7572.13,3856.82c-3.51,-23.27 -11.33,-40.68 -23.49,-52.24c-12.17,-11.56 -27.08,-17.33 -44.71,-17.33c-17.19,0 -31.95,5.73 -44.25,17.23c-12.32,11.48 -20.16,28.92 -23.51,52.35l135.96,0zm-63.41,150.11c-35.59,0 -64.19,-11.15 -85.77,-33.43c-21.6,-22.28 -32.39,-53.35 -32.39,-93.19c0,-39.53 10.45,-70.52 31.36,-92.95c20.91,-22.44 48.25,-33.65 82.01,-33.65c34.51,0 62.08,11.03 82.69,33.07c20.6,22.05 30.91,53.24 30.91,93.53l0,10.27l-182.27,0c1.83,27.99 9.53,48.73 23.15,62.27c13.61,13.55 30.37,20.31 50.31,20.31c15.05,0 28.63,-3.84 40.72,-11.52c12.08,-7.67 18.43,-18.59 19.04,-32.73l44.49,0c-3.35,24.95 -14.65,44.17 -33.88,57.71c-19.24,13.55 -42.69,20.32 -70.37,20.32" fill="#1b2e37" fill-rule="nonzero" id="path51"/>
   <path clip-path="url(#clipPath54)" d="m7783.43,4006.92c-34.37,0 -61.87,-11.07 -82.47,-33.19c-20.61,-22.13 -30.91,-53.28 -30.91,-93.43c0,-40.29 10.29,-71.47 30.91,-93.52c20.6,-22.05 48.09,-33.08 82.47,-33.08c26.45,0 48.55,6.69 66.27,20.08c17.72,13.37 28.17,32.69 31.36,57.95l-44.25,0c-0.61,-14.45 -6.04,-25.48 -16.31,-33.08c-10.27,-7.6 -22.63,-11.4 -37.07,-11.4c-20.53,0 -37.19,7.79 -49.96,23.37c-12.77,15.59 -19.16,38.81 -19.16,69.68c0,30.73 6.39,53.88 19.16,69.47c12.77,15.59 29.43,23.39 49.96,23.39c14.44,0 26.8,-3.8 37.07,-11.41c10.27,-7.6 15.69,-18.55 16.31,-32.84l44.25,0c-3.19,25.24 -13.64,44.56 -31.36,57.95c-17.72,13.37 -39.81,20.07 -66.27,20.07" fill="#1b2e37" fill-rule="nonzero" id="path53" transform="matrix(1 0 0 1 0 0)"/>
   <path clip-path="url(#clipPath56)" d="m7918.93,4001.21l0,-242.03l43.12,0l0,100.37l110.17,0l0,-100.37l42.88,0l0,242.03l-42.88,0l0,-107.89l-110.17,0l0,107.89l-43.12,0z" fill="#1b2e37" fill-rule="nonzero" id="path55"/>
   <path clip-path="url(#clipPath58)" d="m8276.85,3973.16c20.53,0 37.19,-7.8 49.95,-23.39c12.77,-15.59 19.17,-38.73 19.17,-69.47c0,-30.87 -6.4,-54.09 -19.17,-69.68c-12.76,-15.59 -29.41,-23.37 -49.95,-23.37c-20.53,0 -37.19,7.79 -49.96,23.37c-12.77,15.6 -19.16,38.81 -19.16,69.69c0,30.72 6.39,53.87 19.16,69.45c12.77,15.59 29.43,23.39 49.96,23.39m0,-219.45c34.52,0 62.08,11.03 82.69,33.08c20.6,22.05 30.91,53.23 30.91,93.52c0,40.16 -10.31,71.29 -30.91,93.41c-20.61,22.13 -48.17,33.2 -82.69,33.2c-34.37,0 -61.87,-11.07 -82.47,-33.19c-20.61,-22.13 -30.91,-53.28 -30.91,-93.43c0,-40.29 10.29,-71.47 30.91,-93.52c20.6,-22.05 48.09,-33.08 82.47,-33.08" fill="#1b2e37" fill-rule="nonzero" id="path57"/>
   <path clip-path="url(#clipPath60)" d="m0.75,0.75l-340.06,0c-15.24,0 -27.59,-12.35 -27.59,-27.59l0,-525.87c0,-15.24 12.35,-27.59 27.59,-27.59l69.59,0c15.24,0 27.59,12.35 27.59,27.59l0,435.87l242.88,0c15.24,0 27.59,12.35 27.59,27.58l0,62.42c0,15.24 -12.35,27.59 -27.59,27.59" fill="#1b2e37" fill-rule="nonzero" id="path59" transform="matrix(1.33333 0 0 -1.33333 2920.8 2393.72)"/>
   <path clip-path="url(#clipPath62)" d="m0.75,0.75c0,-59.62 -13.92,-106.02 -41.36,-137.93c-27.12,-31.52 -61.11,-46.84 -103.93,-46.84c-42.37,0 -76.2,15.38 -103.42,47.02c-27.56,32.03 -41.53,78.37 -41.53,137.75c0,59.59 14.01,105.97 41.64,137.87c27.35,31.56 61.58,46.9 104.68,46.9c42.11,0 75.7,-15.3 102.69,-46.8c27.36,-31.91 41.23,-78.33 41.23,-137.97m-144.61,299.5c-77.77,0 -142.52,-28 -192.48,-83.23c-49.58,-54.8 -74.71,-127.57 -74.71,-216.27c0,-88.45 25.13,-161.14 74.69,-216.05c49.95,-55.37 114.72,-83.44 192.5,-83.44c77.57,0 142.11,28.02 191.85,83.28c49.31,54.8 74.32,127.54 74.32,216.21c0,88.67 -25.01,161.41 -74.32,216.21c-49.74,55.27 -114.29,83.29 -191.85,83.29" fill="#1b2e37" fill-rule="nonzero" id="path61" transform="matrix(1.33333 0 0 -1.33333 3566.11 2781.09)"/>
   <path clip-path="url(#clipPath64)" d="m0.75,0.75l-416.47,0c-15.24,0 -27.59,-12.35 -27.59,-27.59l0,-62.42c0,-15.23 12.35,-27.59 27.59,-27.59l144.95,0l0,-435.86c0,-15.24 12.36,-27.59 27.59,-27.59l69.95,0c15.24,0 27.59,12.35 27.59,27.59l0,435.87l146.39,0c15.24,0 27.59,12.35 27.59,27.58l0,62.42c0,15.24 -12.35,27.59 -27.59,27.59" fill="#1b2e37" fill-rule="nonzero" id="path63" transform="matrix(1.33333 0 0 -1.33333 4371.12 2393.72)"/>
   <path clip-path="url(#clipPath66)" d="m0.75,0.75c0,-59.61 -13.83,-106.02 -41.12,-137.93c-26.95,-31.52 -60.74,-46.84 -103.3,-46.84c-42.12,0 -75.74,15.38 -102.8,47.02c-27.39,32.03 -41.28,78.37 -41.28,137.75c0,59.59 13.92,105.97 41.39,137.87c27.18,31.56 61.22,46.9 104.05,46.9c41.86,0 75.25,-15.3 102.09,-46.8c27.18,-31.91 40.97,-78.33 40.97,-137.97m-143.74,299.5c-77.3,0 -141.67,-28 -191.33,-83.23c-49.28,-54.81 -74.26,-127.57 -74.26,-216.27c0,-88.44 24.98,-161.14 74.23,-216.06c49.66,-55.36 114.05,-83.43 191.36,-83.43c77.1,0 141.26,28.02 190.7,83.28c49.01,54.8 73.87,127.54 73.87,216.21c0,88.67 -24.86,161.41 -73.88,216.21c-49.44,55.27 -113.6,83.29 -190.69,83.29" fill="#1b2e37" fill-rule="nonzero" id="path65" transform="matrix(1.33333 0 0 -1.33333 4990.89 2781.09)"/>
   <path clip-path="url(#clipPath68)" d="m0.75,0.75c58.15,0 80.31,-10.13 88.35,-16.16c4.42,-3.33 17.86,-13.44 17.86,-46.65c0,-18.79 0,-62.81 -97.24,-62.81l-117.44,0l0,125.62l108.47,0zm-7.17,220.25c49.23,0 68.64,-8.88 75.82,-14.17c6.58,-4.85 15.32,-13.86 15.32,-36.08c0,-25.47 -8.64,-34.28 -15.15,-38.69c-9.23,-6.25 -28.79,-13.72 -69.53,-13.72l-107.76,0l0,102.66l101.3,0zm169.4,-150.94c29.9,27.75 45.43,63.94 45.43,106.78c0,50.6 -19.9,91.11 -59.15,120.4c-36.78,27.44 -86.74,41.35 -148.51,41.35l-205.65,0c-15.24,0 -27.59,-12.35 -27.59,-27.59l0,-525.87c0,-15.24 12.35,-27.59 27.59,-27.59l215.34,0c69.88,0 124.74,15.26 163.04,45.35c40.32,31.68 60.76,77.12 60.76,135.05c0,35.25 -10.3,67.22 -30.6,95.02c-10.81,14.79 -24.4,27.19 -40.66,37.1" fill="#1b2e37" fill-rule="nonzero" id="path67" transform="matrix(1.33333 0 0 -1.33333 5595.34 2844.18)"/>
   <path clip-path="url(#clipPath70)" d="m0.75,0.75c11.69,55.69 29.9,135.8 29.9,238.12l0,8.28l171.92,0l0,-346.58l-231.57,0c11.91,29.18 21.87,62.7 29.75,100.18m368.95,-100.19l-42,0l0,435.88c0,15.23 -12.35,27.59 -27.59,27.59l-367,0c-15.24,0 -27.59,-12.36 -27.59,-27.59l0,-91.12c0,-107.68 -18.14,-188.31 -29.71,-239.65c-9.67,-42.88 -21.28,-78.14 -34.61,-105.11l-31.21,0c-15.23,0 -27.58,-12.35 -27.58,-27.58l0,-185.1c0,-15.23 12.35,-27.58 27.58,-27.58l69.6,0c15.23,0 27.58,12.35 27.58,27.58l0,95.09l365.35,0l0,-95.09c0,-15.23 12.36,-27.58 27.59,-27.58l69.59,0c15.23,0 27.59,12.35 27.59,27.58l0,185.1c0,15.23 -12.36,27.58 -27.59,27.58" fill="#1b2e37" fill-rule="nonzero" id="path69" transform="matrix(1.33333 0 0 -1.33333 6269.97 2878.09)"/>
   <path clip-path="url(#clipPath72)" d="m0.75,0.75c0,-59.61 -14.57,-106.02 -43.31,-137.93c-28.39,-31.52 -63.99,-46.84 -108.82,-46.84c-44.36,0 -79.78,15.38 -108.28,47.02c-28.85,32.03 -43.49,78.37 -43.49,137.75c0,59.59 14.67,105.97 43.61,137.87c28.63,31.56 64.48,46.9 109.6,46.9c44.09,0 79.26,-15.3 107.53,-46.8c28.64,-31.91 43.16,-78.33 43.16,-137.97m49.46,216.21c-52.08,55.27 -119.66,83.29 -200.87,83.29c-81.42,0 -149.23,-28 -201.54,-83.23c-51.9,-54.81 -78.22,-127.57 -78.22,-216.27c0,-88.45 26.31,-161.14 78.19,-216.06c52.31,-55.36 120.13,-83.43 201.57,-83.43c81.21,0 148.79,28.02 200.87,83.28c51.63,54.8 77.82,127.54 77.82,216.21c0,88.67 -26.19,161.41 -77.82,216.21z" fill="#1b2e37" fill-rule="nonzero" id="path71" transform="matrix(1.33333 0 0 -1.33333 7425.22 2781.09)"/>
   <path clip-path="url(#clipPath74)" d="m0.75,0.75l-196.64,278.53l183.38,250.2c6.22,8.48 0.16,20.44 -10.36,20.44l-122.39,0c-4.16,0 -8.06,-2.01 -10.47,-5.4l-155.52,-218.53l-73.92,0l0,196.34c0,15.26 -12.39,27.59 -27.59,27.59l-69.58,0c-15.27,0 -27.59,-12.33 -27.59,-27.59l0,-525.88c0,-15.21 12.32,-27.59 27.59,-27.59l69.58,0c15.2,0 27.59,12.38 27.59,27.59l0,217.83l78.11,0l159.84,-231.99c3.01,-4.38 7.98,-6.99 13.29,-6.99l121.5,0c13.08,0 20.73,14.76 13.18,25.45" fill="#1b2e37" fill-rule="nonzero" id="path73" transform="matrix(1.33333 0 0 -1.33333 8385.47 3125.96)"/>
   <path clip-path="url(#clipPath76)" d="m0.75,0.75c-39.18,0 -76.87,16.3 -103.69,44.94c-0.28,0.29 -0.54,0.58 -0.82,0.87l-374.55,408.3c-42.34,46.16 -39.25,117.9 6.91,160.25c46.16,42.34 117.89,39.24 160.25,-6.91l310.63,-338.62l808.48,917.18c41.41,46.98 113.08,51.5 160.08,10.08c46.98,-41.42 51.5,-113.09 10.08,-160.07l-870.82,-987.91c-26.48,-29.99 -64.53,-47.51 -104.46,-48.09c-0.69,-0.01 -1.4,-0.02 -2.09,-0.02" fill="#38747f" fill-rule="nonzero" id="path75" transform="matrix(1.33333 0 0 -1.33333 1290.57 3042.12)"/>
   <path clip-path="url(#clipPath78)" d="m0.75,0.75l-510.91,0c-37.89,0 -68.6,30.71 -68.6,68.6l0,0c0,37.89 30.71,68.61 68.6,68.61l510.91,0c37.89,0 68.6,-30.72 68.6,-68.61l0,0c0,-37.89 -30.71,-68.6 -68.6,-68.6" fill="#1b2e37" fill-rule="nonzero" id="path77" transform="matrix(1.33333 0 0 -1.33333 1386.97 1800.77)"/>
   <path clip-path="url(#clipPath80)" d="m0.75,0.75l-771.78,0c-37.89,0 -68.6,30.71 -68.6,68.6l0,0c0,37.89 30.71,68.61 68.6,68.61l771.78,0c37.89,0 68.6,-30.72 68.6,-68.61l0,0c0,-37.89 -30.71,-68.6 -68.6,-68.6" fill="#1b2e37" fill-rule="nonzero" id="path79" transform="matrix(1.33333 0 0 -1.33333 1734.8 1303.71)"/>
   <path clip-path="url(#clipPath82)" d="m0.75,0.75l-771.78,0c-37.89,0 -68.6,30.71 -68.6,68.6c0,37.89 30.71,68.61 68.6,68.61l771.78,0c37.89,0 68.6,-30.72 68.6,-68.61c0,-37.88 -30.71,-68.6 -68.6,-68.6" fill="#1b2e37" fill-rule="nonzero" id="path81" transform="matrix(1.33333 0 0 -1.33333 1734.8 796.707)"/>
   <path clip-path="url(#clipPath84)" d="m0.75,0.75l0,-917.08c0,-35.56 -28.81,-64.37 -64.37,-64.37c-35.56,0 -64.37,28.81 -64.37,64.37l0,891.39l-54.07,57.02l-364.1,383.84l-84.54,89.14l-1294.73,0c-58.61,0 -106.3,-47.7 -106.3,-106.31l0,-2043.15c0,-58.61 47.69,-106.31 106.3,-106.31l1255.18,0c35.56,0 64.38,-28.81 64.38,-64.37c0,-35.56 -28.82,-64.37 -64.38,-64.37l-1255.18,0c-129.6,0 -235.05,105.45 -235.05,235.05l0,2043.15c0,129.6 105.45,235.05 235.05,235.05l1322.37,0c17.66,0 34.52,-7.24 46.72,-20.05l539.43,-568.68c11.34,-11.95 17.66,-27.83 17.66,-44.32" fill="#1b2e37" fill-rule="nonzero" id="path83" transform="matrix(1.33333 0 0 -1.33333 3022.99 913.154)"/>
   <path clip-path="url(#clipPath86)" d="m0.75,0.75l-299.85,0c-35.43,0 -64.25,28.81 -64.25,64.25l0,319.59l364.1,-383.84z" fill="#38747f" fill-rule="nonzero" id="path85" transform="matrix(1.33333 0 0 -1.33333 2779.23 871.384)"/>
   <path clip-path="url(#clipPath88)" d="m0.75,0.75c0,-35.56 -28.81,-64.37 -64.37,-64.37l-403.4,0c-106.42,0 -192.99,86.56 -192.99,192.99l0,433.37c0,35.56 28.81,64.38 64.37,64.38c35.5,0 64.37,-28.82 64.37,-64.38l0,-433.37c0,-35.43 28.82,-64.25 64.25,-64.25l403.4,0c35.56,0 64.37,-28.81 64.37,-64.37" fill="#1b2e37" fill-rule="nonzero" id="path87" transform="matrix(1.33333 0 0 -1.33333 3003.12 957.213)"/>
  </g>
 </g>
</svg>