<?xml version="1.0" encoding="UTF-8" standalone="no"?>
<svg
   width="9236.5186"
   height="3350.9917"
   version="1.1"
   id="svg1"
   sodipodi:docname="logo-title.svg"
   inkscape:version="1.4 (e7c3feb1, 2024-10-09)"
   xmlns:inkscape="http://www.inkscape.org/namespaces/inkscape"
   xmlns:sodipodi="http://sodipodi.sourceforge.net/DTD/sodipodi-0.dtd"
   xmlns="http://www.w3.org/2000/svg"
   xmlns:svg="http://www.w3.org/2000/svg">
  <sodipodi:namedview
     id="namedview1"
     pagecolor="#ffffff"
     bordercolor="#000000"
     borderopacity="0.25"
     inkscape:showpageshadow="2"
     inkscape:pageopacity="0.0"
     inkscape:pagecheckerboard="0"
     inkscape:deskcolor="#d1d1d1"
     inkscape:zoom="0.051515562"
     inkscape:cx="6066.1281"
     inkscape:cy="2242.0409"
     inkscape:window-width="1400"
     inkscape:window-height="942"
     inkscape:window-x="222"
     inkscape:window-y="39"
     inkscape:window-maximized="0"
     inkscape:current-layer="svg1" />
  <defs
     id="defs1">
    <clipPath
       clipPathUnits="userSpaceOnUse"
       id="clipPath2">
      <path
         d="m -247.84,2845.45 h 6398.1 V -281.58 h -6398.1 z"
         id="path2"
         transform="translate(1,-1)" />
    </clipPath>
    <clipPath
       clipPathUnits="userSpaceOnUse"
       id="clipPath4">
      <path
         d="m -407.64,2980.61 h 6398.1 V -146.42 h -6398.1 z"
         id="path4"
         transform="translate(1,-1)" />
    </clipPath>
    <clipPath
       clipPathUnits="userSpaceOnUse"
       id="clipPath6">
      <path
         d="m -678.98,3001.65 h 6398.1 V -125.38 h -6398.1 z"
         id="path6"
         transform="translate(1,-1)" />
    </clipPath>
    <clipPath
       clipPathUnits="userSpaceOnUse"
       id="clipPath8">
      <path
         d="m -714.39,3045.45 h 6398.1 V -81.58 h -6398.1 z"
         id="path8"
         transform="translate(1,-1)" />
    </clipPath>
    <clipPath
       clipPathUnits="userSpaceOnUse"
       id="clipPath10">
      <path
         d="m -879.32,3001.65 h 6398.1 V -125.38 h -6398.1 z"
         id="path10"
         transform="translate(1,-1)" />
    </clipPath>
    <clipPath
       clipPathUnits="userSpaceOnUse"
       id="clipPath12">
      <path
         d="m -1254.17,2893.35 h 6398.1 V -233.68 h -6398.1 z"
         id="path12"
         transform="translate(1,-1)" />
    </clipPath>
    <clipPath
       clipPathUnits="userSpaceOnUse"
       id="clipPath14">
      <path
         d="m -1338.33,3001.65 h 6398.1 V -125.38 h -6398.1 z"
         id="path14"
         transform="translate(1,-1)" />
    </clipPath>
    <clipPath
       clipPathUnits="userSpaceOnUse"
       id="clipPath16">
      <path
         d="m -1515.75,2845.45 h 6398.1 V -281.58 h -6398.1 z"
         id="path16"
         transform="translate(1,-1)" />
    </clipPath>
    <clipPath
       clipPathUnits="userSpaceOnUse"
       id="clipPath18">
      <path
         d="m -1693.68,3001.65 h 6398.1 V -125.38 h -6398.1 z"
         id="path18"
         transform="translate(1,-1)" />
    </clipPath>
    <clipPath
       clipPathUnits="userSpaceOnUse"
       id="clipPath20">
      <path
         d="m -1982.64,3001.65 h 6398.1 V -125.38 h -6398.1 z"
         id="path20"
         transform="translate(1,-1)" />
    </clipPath>
    <clipPath
       clipPathUnits="userSpaceOnUse"
       id="clipPath22">
      <path
         d="m -2251.08,2980.61 h 6398.1 V -146.42 h -6398.1 z"
         id="path22"
         transform="translate(1,-1)" />
    </clipPath>
    <clipPath
       clipPathUnits="userSpaceOnUse"
       id="clipPath24">
      <path
         d="M -2564,2907.04 H 3834.1 V -219.99 H -2564 Z"
         id="path24"
         transform="translate(1,-1)" />
    </clipPath>
    <clipPath
       clipPathUnits="userSpaceOnUse"
       id="clipPath26">
      <path
         d="M -2741.6,2953.92 H 3656.5 V -173.11 h -6398.1 z"
         id="path26"
         transform="translate(1,-1)" />
    </clipPath>
    <clipPath
       clipPathUnits="userSpaceOnUse"
       id="clipPath28">
      <path
         d="M -2931.5,2905.67 H 3466.6 V -221.36 h -6398.1 z"
         id="path28"
         transform="translate(1,-1)" />
    </clipPath>
    <clipPath
       clipPathUnits="userSpaceOnUse"
       id="clipPath30">
      <path
         d="m -3043.73,2921.41 h 6398.1 V -205.62 h -6398.1 z"
         id="path30"
         transform="translate(1,-1)" />
    </clipPath>
    <clipPath
       clipPathUnits="userSpaceOnUse"
       id="clipPath32">
      <path
         d="m -3347.41,3001.65 h 6398.1 V -125.38 h -6398.1 z"
         id="path32"
         transform="translate(1,-1)" />
    </clipPath>
    <clipPath
       clipPathUnits="userSpaceOnUse"
       id="clipPath34">
      <path
         d="m -3487.54,2953.92 h 6398.1 V -173.11 h -6398.1 z"
         id="path34"
         transform="translate(1,-1)" />
    </clipPath>
    <clipPath
       clipPathUnits="userSpaceOnUse"
       id="clipPath36">
      <path
         d="M 0,3127.03 H 6398.1 V 0 H 0 Z"
         id="path36"
         transform="translate(1,-1)" />
    </clipPath>
    <clipPath
       clipPathUnits="userSpaceOnUse"
       id="clipPath38">
      <path
         d="m -4063.35,2854.82 h 6398.1 V -272.21 h -6398.1 z"
         id="path38"
         transform="translate(1,-1)" />
    </clipPath>
    <clipPath
       clipPathUnits="userSpaceOnUse"
       id="clipPath40">
      <path
         d="m -4249.33,2976.5 h 6398.1 V -150.53 h -6398.1 z"
         id="path40"
         transform="translate(1,-1)" />
    </clipPath>
    <clipPath
       clipPathUnits="userSpaceOnUse"
       id="clipPath42">
      <path
         d="m -4411.71,2958.54 h 6398.1 V -168.49 h -6398.1 z"
         id="path42"
         transform="translate(1,-1)" />
    </clipPath>
    <clipPath
       clipPathUnits="userSpaceOnUse"
       id="clipPath44">
      <path
         d="M -4679.8,2907.04 H 1718.3 V -219.99 h -6398.1 z"
         id="path44"
         transform="translate(1,-1)" />
    </clipPath>
    <clipPath
       clipPathUnits="userSpaceOnUse"
       id="clipPath46">
      <path
         d="m -4823.01,2980.61 h 6398.1 V -146.42 h -6398.1 z"
         id="path46"
         transform="translate(1,-1)" />
    </clipPath>
    <clipPath
       clipPathUnits="userSpaceOnUse"
       id="clipPath48">
      <path
         d="m -5044.39,3001.65 h 6398.1 V -125.38 h -6398.1 z"
         id="path48"
         transform="translate(1,-1)" />
    </clipPath>
    <clipPath
       clipPathUnits="userSpaceOnUse"
       id="clipPath50">
      <path
         d="m -5361.39,2820.13 h 6398.1 V -306.9 h -6398.1 z"
         id="path50"
         transform="translate(1,-1)" />
    </clipPath>
    <clipPath
       clipPathUnits="userSpaceOnUse"
       id="clipPath52">
      <path
         d="M -5679.09,2893.35 H 719.01 V -233.68 h -6398.1 z"
         id="path52"
         transform="translate(1,-1)" />
    </clipPath>
    <clipPath
       clipPathUnits="userSpaceOnUse"
       id="clipPath54">
      <path
         d="M -5836.82,3005.93 H 561.28 V -121.1 h -6398.1 z"
         id="path54"
         transform="translate(1,-1)" />
    </clipPath>
    <clipPath
       clipPathUnits="userSpaceOnUse"
       id="clipPath56">
      <path
         d="M -5938.45,3001.65 H 459.65 V -125.38 h -6398.1 z"
         id="path56"
         transform="translate(1,-1)" />
    </clipPath>
    <clipPath
       clipPathUnits="userSpaceOnUse"
       id="clipPath58">
      <path
         d="M -6206.89,2980.61 H 191.21 V -146.42 h -6398.1 z"
         id="path58"
         transform="translate(1,-1)" />
    </clipPath>
    <clipPath
       clipPathUnits="userSpaceOnUse"
       id="clipPath60">
      <path
         d="M -2190.6,1795.28 H 4207.5 V -1331.75 H -2190.6 Z"
         id="path60"
         transform="translate(1,-1)" />
    </clipPath>
    <clipPath
       clipPathUnits="userSpaceOnUse"
       id="clipPath62">
      <path
         d="m -2674.58,2085.81 h 6398.1 v -3127.03 h -6398.1 z"
         id="path62"
         transform="translate(1,-1)" />
    </clipPath>
    <clipPath
       clipPathUnits="userSpaceOnUse"
       id="clipPath64">
      <path
         d="m -3278.34,1795.28 h 6398.1 v -3127.03 h -6398.1 z"
         id="path64"
         transform="translate(1,-1)" />
    </clipPath>
    <clipPath
       clipPathUnits="userSpaceOnUse"
       id="clipPath66">
      <path
         d="m -3743.17,2085.81 h 6398.1 v -3127.03 h -6398.1 z"
         id="path66"
         transform="translate(1,-1)" />
    </clipPath>
    <clipPath
       clipPathUnits="userSpaceOnUse"
       id="clipPath68">
      <path
         d="m -4196.51,2133.13 h 6398.1 V -993.9 h -6398.1 z"
         id="path68"
         transform="translate(1,-1)" />
    </clipPath>
    <clipPath
       clipPathUnits="userSpaceOnUse"
       id="clipPath70">
      <path
         d="m -4702.48,2158.56 h 6398.1 V -968.47 h -6398.1 z"
         id="path70"
         transform="translate(1,-1)" />
    </clipPath>
    <clipPath
       clipPathUnits="userSpaceOnUse"
       id="clipPath72">
      <path
         d="m -5568.91,2085.81 h 6398.1 v -3127.03 h -6398.1 z"
         id="path72"
         transform="translate(1,-1)" />
    </clipPath>
    <clipPath
       clipPathUnits="userSpaceOnUse"
       id="clipPath74">
      <path
         d="M -6289.1,2344.46 H 109 V -782.57 h -6398.1 z"
         id="path74"
         transform="translate(1,-1)" />
    </clipPath>
    <clipPath
       clipPathUnits="userSpaceOnUse"
       id="clipPath76">
      <path
         d="m -967.93,2281.58 h 6398.1 V -845.45 h -6398.1 z"
         id="path76"
         transform="translate(1,-1)" />
    </clipPath>
    <clipPath
       clipPathUnits="userSpaceOnUse"
       id="clipPath78">
      <path
         d="m -1040.23,1350.57 h 6398.1 v -3127.03 h -6398.1 z"
         id="path78"
         transform="translate(1,-1)" />
    </clipPath>
    <clipPath
       clipPathUnits="userSpaceOnUse"
       id="clipPath80">
      <path
         d="M -1301.1,977.77 H 5097 v -3127.03 h -6398.1 z"
         id="path80"
         transform="translate(1,-1)" />
    </clipPath>
    <clipPath
       clipPathUnits="userSpaceOnUse"
       id="clipPath82">
      <path
         d="M -1301.1,597.52 H 5097 v -3127.03 h -6398.1 z"
         id="path82"
         transform="translate(1,-1)" />
    </clipPath>
    <clipPath
       clipPathUnits="userSpaceOnUse"
       id="clipPath84">
      <path
         d="m -2267.24,684.86 h 6398.1 v -3127.03 h -6398.1 z"
         id="path84"
         transform="translate(1,-1)" />
    </clipPath>
    <clipPath
       clipPathUnits="userSpaceOnUse"
       id="clipPath86">
      <path
         d="m -2084.42,653.53 h 6398.1 V -2473.5 h -6398.1 z"
         id="path86"
         transform="translate(1,-1)" />
    </clipPath>
    <clipPath
       clipPathUnits="userSpaceOnUse"
       id="clipPath88">
      <path
         d="m -2252.34,717.9 h 6398.1 v -3127.03 h -6398.1 z"
         id="path88"
         transform="translate(1,-1)" />
    </clipPath>
    <clipPath
       clipPathUnits="userSpaceOnUse"
       id="clipPath82-0">
      <path
         d="M -1301.1,597.52 H 5097 v -3127.03 h -6398.1 z"
         id="path82-2"
         transform="translate(1,-1)" />
    </clipPath>
    <clipPath
       clipPathUnits="userSpaceOnUse"
       id="clipPath88-7">
      <path
         d="m -2252.34,717.9 h 6398.1 v -3127.03 h -6398.1 z"
         id="path88-0"
         transform="translate(1,-1)" />
    </clipPath>
    <clipPath
       clipPathUnits="userSpaceOnUse"
       id="clipPath80-7">
      <path
         d="M -1301.1,977.77 H 5097 v -3127.03 h -6398.1 z"
         id="path80-0"
         transform="translate(1,-1)" />
    </clipPath>
  </defs>
  <g
     class="layer"
     id="g1"
     transform="translate(-142.3572,-68.089446)">
    <title
       id="title1">Layer 1</title>
    <g
       id="layer-MC0">
      <path
         clip-path="url(#clipPath2)"
         d="m 331.46,3792.94 h -82.57 c -3.2,78.17 -15.52,136.41 -36.96,174.73 h 119.53 z m 43.12,174.73 h 34.89 v 98.55 h -42.89 v -65.01 H 185.23 v 65.01 h -42.88 v -98.55 h 21.44 c 28.13,-39.84 42.2,-105.47 42.2,-196.85 v -11.64 h 168.57 l 0.01,208.49 z"
         fill="#1b2e37"
         fill-rule="nonzero"
         id="path1" />
      <path
         clip-path="url(#clipPath4)"
         d="m 544.52,3973.16 c 20.53,0 37.19,-7.8 49.96,-23.39 12.77,-15.59 19.16,-38.73 19.16,-69.47 0,-30.87 -6.39,-54.09 -19.16,-69.68 -12.77,-15.59 -29.43,-23.37 -49.96,-23.37 -20.53,0 -37.19,7.79 -49.96,23.37 -12.77,15.6 -19.16,38.81 -19.16,69.69 0,30.72 6.39,53.87 19.16,69.45 12.77,15.59 29.43,23.39 49.96,23.39 m 0,-219.45 c 34.52,0 62.08,11.03 82.69,33.08 20.6,22.05 30.91,53.23 30.91,93.52 0,40.15 -10.31,71.29 -30.91,93.41 -20.61,22.13 -48.17,33.2 -82.69,33.2 -34.37,0 -61.85,-11.07 -82.47,-33.19 -20.6,-22.13 -30.91,-53.28 -30.91,-93.43 0,-40.29 10.31,-71.47 30.91,-93.52 20.61,-22.05 48.09,-33.08 82.47,-33.08"
         fill="#1b2e37"
         fill-rule="nonzero"
         id="path3" />
      <path
         clip-path="url(#clipPath6)"
         d="m 906.31,4001.21 h -51.32 l -77.56,-118.16 -28.07,29.43 v 88.73 h -43.11 v -242.03 h 43.11 v 103.33 l 93.31,-103.33 h 54.29 l -91.71,95.35 101.05,146.68 z"
         fill="#1b2e37"
         fill-rule="nonzero"
         id="path5" />
      <path
         clip-path="url(#clipPath8)"
         d="m 953.53,4059.61 c 21.29,0 38.69,-19.47 52.24,-58.4 l -47.21,-124.55 -44.27,-117.48 h 46.55 l 37.63,111.77 26.47,77.56 64.11,-189.33 h 46.53 l -91.48,242.03 c -8.83,23.12 -16.31,40.95 -22.47,53.49 -6.16,12.55 -14.23,23.12 -24.19,31.72 -9.96,8.59 -22.16,12.88 -36.6,12.88 -10.81,0 -20.08,-1.07 -27.84,-3.19 v -39.69 c 6.69,2.12 13.53,3.19 20.53,3.19"
         fill="#1b2e37"
         fill-rule="nonzero"
         id="path7" />
      <path
         clip-path="url(#clipPath10)"
         d="m 1173.43,4001.21 v -242.03 h 62.73 l 72.31,188.19 72.55,-188.19 h 62.51 v 242.03 h -42.89 v -189.57 l -73,189.57 h -38.32 l -72.76,-189.57 v 189.57 h -43.12 z"
         fill="#1b2e37"
         fill-rule="nonzero"
         id="path9" />
      <path
         clip-path="url(#clipPath12)"
         d="m 1673.23,3856.82 c -3.51,-23.27 -11.33,-40.68 -23.49,-52.24 -12.17,-11.56 -27.07,-17.33 -44.72,-17.33 -17.17,0 -31.93,5.73 -44.24,17.23 -12.32,11.48 -20.16,28.92 -23.51,52.35 h 135.96 z m -63.41,150.11 c -35.59,0 -64.17,-11.15 -85.77,-33.43 -21.6,-22.28 -32.4,-53.35 -32.4,-93.19 0,-39.53 10.47,-70.52 31.37,-92.95 20.91,-22.44 48.24,-33.65 82,-33.65 34.53,0 62.09,11.03 82.69,33.07 20.61,22.05 30.92,53.24 30.92,93.53 v 10.27 h -182.27 c 1.83,27.99 9.55,48.73 23.15,62.27 13.61,13.55 30.37,20.31 50.31,20.31 15.05,0 28.63,-3.84 40.72,-11.52 12.08,-7.67 18.44,-18.59 19.04,-32.73 h 44.48 c -3.35,24.95 -14.63,44.17 -33.87,57.71 -19.24,13.55 -42.69,20.32 -70.37,20.32"
         fill="#1b2e37"
         fill-rule="nonzero"
         id="path11" />
      <path
         clip-path="url(#clipPath14)"
         d="m 1785.44,4001.21 v -242.03 h 43.12 v 100.37 h 110.17 v -100.37 h 42.88 v 242.03 h -42.88 v -107.89 h -110.17 v 107.89 z"
         fill="#1b2e37"
         fill-rule="nonzero"
         id="path13" />
      <path
         clip-path="url(#clipPath16)"
         d="m 2022,3792.94 v -33.76 h 197.09 v 33.76 h -77.11 v 208.27 h -42.88 v -208.27 h -77.11 z"
         fill="#1b2e37"
         fill-rule="nonzero"
         id="path15" />
      <path
         clip-path="url(#clipPath18)"
         d="m 2259.24,4001.21 v -242.03 h 43.12 v 184.08 l 108.35,-184.08 h 46.31 v 242.03 h -43.11 v -184.09 l -108.36,184.09 z"
         fill="#1b2e37"
         fill-rule="nonzero"
         id="path17" />
      <path
         clip-path="url(#clipPath20)"
         d="m 2644.52,4001.21 v -242.03 h 196.17 v 242.03 h -42.88 v -208.27 h -110.17 v 208.27 z"
         fill="#1b2e37"
         fill-rule="nonzero"
         id="path19" />
      <path
         clip-path="url(#clipPath22)"
         d="m 3002.44,3973.16 c 20.53,0 37.19,-7.8 49.96,-23.39 12.77,-15.59 19.16,-38.73 19.16,-69.47 0,-30.87 -6.39,-54.09 -19.16,-69.68 -12.77,-15.59 -29.43,-23.37 -49.96,-23.37 -20.53,0 -37.19,7.79 -49.96,23.37 -12.77,15.6 -19.16,38.81 -19.16,69.69 0,30.72 6.39,53.87 19.16,69.45 12.77,15.59 29.43,23.39 49.96,23.39 m 0,-219.45 c 34.52,0 62.08,11.03 82.69,33.08 20.6,22.05 30.91,53.23 30.91,93.52 0,40.15 -10.31,71.29 -30.91,93.41 -20.61,22.13 -48.17,33.2 -82.69,33.2 -34.37,0 -61.85,-11.07 -82.47,-33.19 -20.6,-22.13 -30.91,-53.28 -30.91,-93.43 0,-40.29 10.31,-71.47 30.91,-93.52 20.61,-22.05 48.09,-33.08 82.47,-33.08"
         fill="#1b2e37"
         fill-rule="nonzero"
         id="path21" />
      <path
         clip-path="url(#clipPath24)"
         d="m 3419.67,3875.07 c 29.8,13.53 44.71,33.29 44.71,59.31 0,20.84 -9.08,38.13 -27.25,51.89 -18.17,13.77 -43.77,20.65 -76.76,20.65 -30.27,0 -54.91,-6.59 -73.92,-19.73 -19,-13.16 -29.41,-29.47 -31.24,-48.93 h 44.25 c 0,8.67 5.4,16.65 16.19,23.96 10.8,7.29 25.4,10.95 43.8,10.95 18.87,0 33.68,-3.61 44.48,-10.84 10.8,-7.21 16.2,-16.69 16.2,-28.4 0,-9.88 -2.81,-18.09 -8.44,-24.64 -5.63,-6.53 -12.59,-10.91 -20.87,-13.11 -8.29,-2.21 -21.41,-3.32 -39.35,-3.32 h -15.52 v -32.61 h 15.52 c 26.76,0 43.79,-3.61 51.09,-10.84 7.29,-7.21 10.95,-15.47 10.95,-24.75 0,-24.95 -17.11,-37.41 -51.32,-37.41 -33.61,0 -51.56,9.2 -53.84,27.61 h -44.25 c 0,-17.8 8.75,-32.44 26.23,-43.92 17.49,-11.48 40.84,-17.23 70.04,-17.23 30.71,0 54.67,6.55 71.85,19.61 17.19,13.09 25.77,29.89 25.77,50.41 0,23.12 -12.77,40.23 -38.32,51.33"
         fill="#1b2e37"
         fill-rule="nonzero"
         id="path23" />
      <path
         clip-path="url(#clipPath26)"
         d="m 3656.46,3937.57 v -53.61 h -29.43 c -62.36,0 -93.53,16.96 -93.53,50.88 0,12.31 4.57,21.77 13.69,28.39 9.12,6.63 21.44,9.93 36.96,9.93 14.13,0 27.83,-3.2 41.05,-9.59 13.24,-6.39 23.65,-15.05 31.25,-26 m 0,38.77 c -21.89,20.39 -50.11,30.57 -84.63,30.57 -24.04,0 -43.8,-6.51 -59.31,-19.51 -15.52,-13 -23.28,-29.77 -23.28,-50.31 0,-56.57 48.75,-84.85 146.23,-84.85 h 20.99 c 0,-17.33 -0.91,-29.92 -2.73,-37.76 -1.83,-7.83 -6.93,-14.32 -15.28,-19.49 -8.37,-5.17 -21.68,-7.76 -39.92,-7.76 -38.33,0 -58.11,13.68 -59.32,41.05 h -42.88 c 3.19,-49.72 38.01,-74.59 104.48,-74.59 31.01,0 55.2,6.16 72.53,18.48 17.33,12.32 26,36.51 26,72.53 v 156.49 h -42.88 v -24.87 z"
         fill="#1b2e37"
         fill-rule="nonzero"
         id="path25" />
      <path
         clip-path="url(#clipPath28)"
         d="m 3909.67,3873.24 v -80.31 h -62.05 c -32.69,0 -49.04,12.79 -49.04,38.33 0,27.97 20.23,41.97 60.68,41.97 h 50.41 z M 3841,3759.17 h 111.79 v 242.04 h -43.12 v -94.45 h -38.32 c -11.87,0 -21.72,3.17 -29.55,9.48 -7.83,6.31 -15.4,16.91 -22.69,31.81 l -26.24,53.16 h -49.49 l 32.84,-60.68 c 10.64,-20.37 24.79,-33.45 42.44,-39.24 -43.04,-8.67 -64.56,-32.55 -64.56,-71.63 0,-21.75 7.67,-38.93 23.04,-51.55 15.36,-12.63 36.64,-18.95 63.87,-18.95"
         fill="#1b2e37"
         fill-rule="nonzero"
         id="path27" />
      <path
         clip-path="url(#clipPath30)"
         d="m 4059.31,3894.22 v 73.45 h 56.35 c 36.19,0 54.29,-12.16 54.29,-36.51 0,-24.63 -19.32,-36.95 -57.95,-36.95 h -52.69 z m 0,-101.28 v 67.75 h 50.87 c 17.95,0 30.84,-2.61 38.67,-7.87 7.83,-5.24 11.75,-13.88 11.75,-25.89 0,-11.71 -4.07,-20.31 -12.2,-25.77 -8.15,-5.48 -21.95,-8.21 -41.4,-8.21 h -47.68 z m 70.03,208.27 h -113.15 v -242.03 h 98.09 c 59.61,0 89.43,21.37 89.43,64.09 0,25.4 -10.51,42.81 -31.48,52.24 28.12,8.52 42.19,27.83 42.19,57.95 0,20.52 -7.6,36.95 -22.8,49.27 -15.21,12.32 -35.97,18.48 -62.28,18.48"
         fill="#1b2e37"
         fill-rule="nonzero"
         id="path29" />
      <path
         clip-path="url(#clipPath32)"
         d="m 4464.21,4001.21 h -51.32 l -77.56,-118.16 -28.07,29.43 v 88.73 h -43.11 v -242.03 h 43.11 v 103.33 l 93.31,-103.33 h 54.29 l -91.71,95.35 101.05,146.68 z"
         fill="#1b2e37"
         fill-rule="nonzero"
         id="path31" />
      <path
         clip-path="url(#clipPath34)"
         d="m 4651.05,3937.57 v -53.61 h -29.43 c -62.36,0 -93.53,16.96 -93.53,50.88 0,12.31 4.56,21.77 13.69,28.39 9.12,6.63 21.44,9.93 36.95,9.93 14.15,0 27.84,-3.2 41.07,-9.59 13.23,-6.39 23.64,-15.05 31.25,-26 m 0,38.77 c -21.91,20.39 -50.12,30.57 -84.64,30.57 -24.03,0 -43.79,-6.51 -59.31,-19.51 -15.51,-13 -23.27,-29.77 -23.27,-50.31 0,-56.57 48.75,-84.85 146.23,-84.85 h 20.99 c 0,-17.33 -0.92,-29.92 -2.73,-37.76 -1.83,-7.83 -6.92,-14.32 -15.29,-19.49 -8.36,-5.17 -21.67,-7.76 -39.92,-7.76 -38.32,0 -58.09,13.68 -59.31,41.05 h -42.89 c 3.2,-49.72 38.01,-74.59 104.48,-74.59 31.03,0 55.2,6.16 72.55,18.48 17.33,12.32 26,36.51 26,72.53 v 156.49 h -42.88 v -24.87 z"
         fill="#1b2e37"
         fill-rule="nonzero"
         id="path33" />
      <path
         clip-path="url(#clipPath36)"
         d="m 5145.12,3896.96 h -279.21 v -33.53 h 279.21 z"
         fill="#1b2e37"
         fill-rule="nonzero"
         id="path35" />
      <path
         clip-path="url(#clipPath38)"
         d="m 5418.8,3805.44 c -24.31,0 -41.59,12.61 -50.93,30.84 -7.47,13.55 -11.21,29.89 -11.21,48.12 0,37.37 18.23,91.12 63.08,91.12 45.32,0 62.13,-43.92 62.13,-85.51 0,-36.92 -14.48,-84.57 -63.07,-84.57 m 80.83,-107 c -11.68,4.21 -32.24,7.95 -47.19,10.28 -36.44,5.61 -63.08,17.76 -80.37,42.52 -14.48,20.56 -22.89,50.92 -24.76,74.76 h 1.4 c 14.48,-32.71 46.25,-50.93 78.49,-50.93 55.6,0 96.27,39.72 96.27,111.67 0,73.83 -38.32,119.63 -104.67,119.63 -79.44,0 -105.6,-76.17 -105.6,-151.39 0,-51.4 10.75,-93.45 35.04,-125.23 21.96,-31.31 53.27,-45.8 97.19,-53.27 18.23,-2.8 40.65,-6.53 56.08,-12.15 z"
         fill="#1b2e37"
         fill-rule="nonzero"
         id="path37" />
      <path
         clip-path="url(#clipPath40)"
         d="m 5666.77,3967.68 h 52.47 c 38.63,0 57.95,-13.47 57.95,-40.37 0,-26.77 -19.32,-40.15 -57.95,-40.15 h -52.47 z m 0,-114.05 h 54.29 c 31.79,0 56.45,6.61 74.03,19.84 17.56,13.23 26.35,31.19 26.35,53.84 0,22.81 -8.79,40.83 -26.35,54.07 -17.57,13.23 -42.24,19.84 -74.03,19.84 h -97.17 v -208.27 h -77.11 v -33.76 h 119.99 z"
         fill="#1b2e37"
         fill-rule="nonzero"
         id="path39" />
      <path
         clip-path="url(#clipPath42)"
         d="m 5883.29,3942.73 c 18.4,19.61 39.53,29.43 63.41,29.43 18.55,0 33.31,-7.95 44.25,-23.84 10.95,-15.89 16.43,-39.59 16.43,-71.05 0,-29.81 -5.17,-52.44 -15.51,-67.87 -10.35,-15.44 -24.79,-23.16 -43.35,-23.16 -23.88,0.01 -45.63,13.84 -65.24,41.52 v 114.97 z m 0,-155.57 c 19.16,-22.96 42.2,-34.45 69.12,-34.45 31.63,0 56.11,11.23 73.45,33.65 17.33,22.43 26,52.73 26,90.91 0,39.69 -9.69,71.05 -29.08,94.09 -19.39,23.04 -43.84,34.56 -73.35,34.56 -26.15,0 -48.2,-8.13 -66.15,-24.41 v 111.79 h -43.11 v -335.11 h 43.11 v 28.97 z"
         fill="#1b2e37"
         fill-rule="nonzero"
         id="path41" />
      <path
         clip-path="url(#clipPath44)"
         d="m 6240.73,3875.07 c 29.8,13.53 44.72,33.29 44.72,59.31 0,20.84 -9.09,38.13 -27.27,51.89 -18.17,13.77 -43.76,20.65 -76.76,20.65 -30.27,0 -54.91,-6.59 -73.91,-19.73 -19.01,-13.16 -29.43,-29.47 -31.25,-48.93 h 44.25 c 0,8.67 5.4,16.65 16.2,23.96 10.8,7.29 25.39,10.95 43.8,10.95 18.85,0 33.68,-3.61 44.48,-10.84 10.79,-7.21 16.2,-16.69 16.2,-28.4 0,-9.88 -2.83,-18.09 -8.45,-24.64 -5.61,-6.53 -12.59,-10.91 -20.87,-13.11 -8.28,-2.21 -21.4,-3.32 -39.35,-3.32 h -15.51 v -32.61 h 15.51 c 26.76,0 43.79,-3.61 51.09,-10.84 7.31,-7.21 10.95,-15.47 10.95,-24.75 0,-24.95 -17.11,-37.41 -51.32,-37.41 -33.61,0 -51.56,9.2 -53.84,27.61 h -44.25 c 0,-17.8 8.75,-32.44 26.24,-43.92 17.48,-11.48 40.83,-17.23 70.03,-17.23 30.72,0 54.67,6.55 71.87,19.61 17.17,13.09 25.76,29.89 25.76,50.41 0,23.12 -12.77,40.23 -38.32,51.33"
         fill="#1b2e37"
         fill-rule="nonzero"
         id="path43" />
      <path
         clip-path="url(#clipPath46)"
         d="m 6431.68,3973.16 c 20.53,0 37.19,-7.8 49.96,-23.39 12.76,-15.59 19.16,-38.73 19.16,-69.47 0,-30.87 -6.4,-54.09 -19.16,-69.68 -12.77,-15.59 -29.43,-23.37 -49.96,-23.37 -20.53,0 -37.19,7.79 -49.96,23.37 -12.77,15.6 -19.16,38.81 -19.16,69.69 0,30.72 6.39,53.87 19.16,69.45 12.77,15.59 29.43,23.39 49.96,23.39 m 0,-219.45 c 34.52,0 62.08,11.03 82.69,33.08 20.6,22.05 30.91,53.23 30.91,93.52 0,40.16 -10.31,71.29 -30.91,93.41 -20.61,22.13 -48.17,33.2 -82.69,33.2 -34.37,0 -61.87,-11.07 -82.47,-33.19 -20.6,-22.13 -30.91,-53.28 -30.91,-93.43 0,-40.29 10.29,-71.47 30.91,-93.52 20.6,-22.05 48.09,-33.08 82.47,-33.08"
         fill="#1b2e37"
         fill-rule="nonzero"
         id="path45" />
      <path
         clip-path="url(#clipPath48)"
         d="m 6726.85,4001.21 v -242.03 h 43.11 v 184.08 l 108.36,-184.08 h 46.31 v 242.03 h -43.12 v -184.09 l -108.35,184.09 z"
         fill="#1b2e37"
         fill-rule="nonzero"
         id="path47" />
      <path
         clip-path="url(#clipPath50)"
         d="m 7149.52,3759.18 h 184.55 v 242.03 h -42.89 v -208.27 h -98.53 v 126.15 c 0,34.53 -5.48,57.23 -16.43,68.09 -10.96,10.88 -26.24,16.31 -45.85,16.31 -11.72,0 -21.37,-0.76 -28.97,-2.28 v -34.67 c 8.21,2.28 16.2,3.43 23.95,3.43 9.43,0 15.83,-3.35 19.17,-10.04 3.33,-6.69 5.01,-20 5.01,-39.92 v -160.83 z"
         fill="#1b2e37"
         fill-rule="nonzero"
         id="path49" />
      <path
         clip-path="url(#clipPath52)"
         d="m 7572.13,3856.82 c -3.51,-23.27 -11.33,-40.68 -23.49,-52.24 -12.17,-11.56 -27.08,-17.33 -44.71,-17.33 -17.19,0 -31.95,5.73 -44.25,17.23 -12.32,11.48 -20.16,28.92 -23.51,52.35 h 135.96 z m -63.41,150.11 c -35.59,0 -64.19,-11.15 -85.77,-33.43 -21.6,-22.28 -32.39,-53.35 -32.39,-93.19 0,-39.53 10.45,-70.52 31.36,-92.95 20.91,-22.44 48.25,-33.65 82.01,-33.65 34.51,0 62.08,11.03 82.69,33.07 20.6,22.05 30.91,53.24 30.91,93.53 v 10.27 h -182.27 c 1.83,27.99 9.53,48.73 23.15,62.27 13.61,13.55 30.37,20.31 50.31,20.31 15.05,0 28.63,-3.84 40.72,-11.52 12.08,-7.67 18.43,-18.59 19.04,-32.73 h 44.49 c -3.35,24.95 -14.65,44.17 -33.88,57.71 -19.24,13.55 -42.69,20.32 -70.37,20.32"
         fill="#1b2e37"
         fill-rule="nonzero"
         id="path51" />
      <path
         clip-path="url(#clipPath54)"
         d="m 7783.43,4006.92 c -34.37,0 -61.87,-11.07 -82.47,-33.19 -20.61,-22.13 -30.91,-53.28 -30.91,-93.43 0,-40.29 10.29,-71.47 30.91,-93.52 20.6,-22.05 48.09,-33.08 82.47,-33.08 26.45,0 48.55,6.69 66.27,20.08 17.72,13.37 28.17,32.69 31.36,57.95 h -44.25 c -0.61,-14.45 -6.04,-25.48 -16.31,-33.08 -10.27,-7.6 -22.63,-11.4 -37.07,-11.4 -20.53,0 -37.19,7.79 -49.96,23.37 -12.77,15.59 -19.16,38.81 -19.16,69.68 0,30.73 6.39,53.88 19.16,69.47 12.77,15.59 29.43,23.39 49.96,23.39 14.44,0 26.8,-3.8 37.07,-11.41 10.27,-7.6 15.69,-18.55 16.31,-32.84 h 44.25 c -3.19,25.24 -13.64,44.56 -31.36,57.95 -17.72,13.37 -39.81,20.07 -66.27,20.07"
         fill="#1b2e37"
         fill-rule="nonzero"
         id="path53" />
      <path
         clip-path="url(#clipPath56)"
         d="m 7918.93,4001.21 v -242.03 h 43.12 v 100.37 h 110.17 v -100.37 h 42.88 v 242.03 h -42.88 v -107.89 h -110.17 v 107.89 z"
         fill="#1b2e37"
         fill-rule="nonzero"
         id="path55" />
      <path
         clip-path="url(#clipPath58)"
         d="m 8276.85,3973.16 c 20.53,0 37.19,-7.8 49.95,-23.39 12.77,-15.59 19.17,-38.73 19.17,-69.47 0,-30.87 -6.4,-54.09 -19.17,-69.68 -12.76,-15.59 -29.41,-23.37 -49.95,-23.37 -20.53,0 -37.19,7.79 -49.96,23.37 -12.77,15.6 -19.16,38.81 -19.16,69.69 0,30.72 6.39,53.87 19.16,69.45 12.77,15.59 29.43,23.39 49.96,23.39 m 0,-219.45 c 34.52,0 62.08,11.03 82.69,33.08 20.6,22.05 30.91,53.23 30.91,93.52 0,40.16 -10.31,71.29 -30.91,93.41 -20.61,22.13 -48.17,33.2 -82.69,33.2 -34.37,0 -61.87,-11.07 -82.47,-33.19 -20.61,-22.13 -30.91,-53.28 -30.91,-93.43 0,-40.29 10.29,-71.47 30.91,-93.52 20.6,-22.05 48.09,-33.08 82.47,-33.08"
         fill="#1b2e37"
         fill-rule="nonzero"
         id="path57" />
      <path
         clip-path="url(#clipPath60)"
         d="m 0.75,0.75 h -340.06 c -15.24,0 -27.59,-12.35 -27.59,-27.59 v -525.87 c 0,-15.24 12.35,-27.59 27.59,-27.59 h 69.59 c 15.24,0 27.59,12.35 27.59,27.59 v 435.87 H 0.75 c 15.24,0 27.59,12.35 27.59,27.58 v 62.42 C 28.34,-11.6 15.99,0.75 0.75,0.75"
         fill="#1b2e37"
         fill-rule="nonzero"
         id="path59"
         transform="matrix(1.33333,0,0,-1.33333,3909.2273,1526.9764)" />
      <path
         clip-path="url(#clipPath62)"
         d="m 0.75,0.75 c 0,-59.62 -13.92,-106.02 -41.36,-137.93 -27.12,-31.52 -61.11,-46.84 -103.93,-46.84 -42.37,0 -76.2,15.38 -103.42,47.02 -27.56,32.03 -41.53,78.37 -41.53,137.75 0,59.59 14.01,105.97 41.64,137.87 27.35,31.56 61.58,46.9 104.68,46.9 42.11,0 75.7,-15.3 102.69,-46.8 C -13.12,106.81 0.75,60.39 0.75,0.75 m -144.61,299.5 c -77.77,0 -142.52,-28 -192.48,-83.23 -49.58,-54.8 -74.71,-127.57 -74.71,-216.27 0,-88.45 25.13,-161.14 74.69,-216.05 49.95,-55.37 114.72,-83.44 192.5,-83.44 77.57,0 142.11,28.02 191.85,83.28 49.31,54.8 74.32,127.54 74.32,216.21 0,88.67 -25.01,161.41 -74.32,216.21 -49.74,55.27 -114.29,83.29 -191.85,83.29"
         fill="#1b2e37"
         fill-rule="nonzero"
         id="path61"
         transform="matrix(1.33333,0,0,-1.33333,4554.5373,1914.3464)" />
      <path
         clip-path="url(#clipPath64)"
         d="m 0.75,0.75 h -416.47 c -15.24,0 -27.59,-12.35 -27.59,-27.59 v -62.42 c 0,-15.23 12.35,-27.59 27.59,-27.59 h 144.95 v -435.86 c 0,-15.24 12.36,-27.59 27.59,-27.59 h 69.95 c 15.24,0 27.59,12.35 27.59,27.59 v 435.87 H 0.75 c 15.24,0 27.59,12.35 27.59,27.58 v 62.42 C 28.34,-11.6 15.99,0.75 0.75,0.75"
         fill="#1b2e37"
         fill-rule="nonzero"
         id="path63"
         transform="matrix(1.33333,0,0,-1.33333,5359.5473,1526.9764)" />
      <path
         clip-path="url(#clipPath66)"
         d="m 0.75,0.75 c 0,-59.61 -13.83,-106.02 -41.12,-137.93 -26.95,-31.52 -60.74,-46.84 -103.3,-46.84 -42.12,0 -75.74,15.38 -102.8,47.02 -27.39,32.03 -41.28,78.37 -41.28,137.75 0,59.59 13.92,105.97 41.39,137.87 27.18,31.56 61.22,46.9 104.05,46.9 41.86,0 75.25,-15.3 102.09,-46.8 C -13.04,106.81 0.75,60.39 0.75,0.75 m -143.74,299.5 c -77.3,0 -141.67,-28 -191.33,-83.23 -49.28,-54.81 -74.26,-127.57 -74.26,-216.27 0,-88.44 24.98,-161.14 74.23,-216.06 49.66,-55.36 114.05,-83.43 191.36,-83.43 77.1,0 141.26,28.02 190.7,83.28 49.01,54.8 73.87,127.54 73.87,216.21 0,88.67 -24.86,161.41 -73.88,216.21 -49.44,55.27 -113.6,83.29 -190.69,83.29"
         fill="#1b2e37"
         fill-rule="nonzero"
         id="path65"
         transform="matrix(1.33333,0,0,-1.33333,5979.3173,1914.3464)" />
      <path
         clip-path="url(#clipPath68)"
         d="m 0.75,0.75 c 58.15,0 80.31,-10.13 88.35,-16.16 4.42,-3.33 17.86,-13.44 17.86,-46.65 0,-18.79 0,-62.81 -97.24,-62.81 H -107.72 V 0.75 Z M -6.42,221 c 49.23,0 68.64,-8.88 75.82,-14.17 6.58,-4.85 15.32,-13.86 15.32,-36.08 0,-25.47 -8.64,-34.28 -15.15,-38.69 C 60.34,125.81 40.78,118.34 0.04,118.34 H -107.72 V 221 Z M 162.98,70.06 c 29.9,27.75 45.43,63.94 45.43,106.78 0,50.6 -19.9,91.11 -59.15,120.4 -36.78,27.44 -86.74,41.35 -148.51,41.35 H -204.9 c -15.24,0 -27.59,-12.35 -27.59,-27.59 v -525.87 c 0,-15.24 12.35,-27.59 27.59,-27.59 H 10.44 c 69.88,0 124.74,15.26 163.04,45.35 40.32,31.68 60.76,77.12 60.76,135.05 0,35.25 -10.3,67.22 -30.6,95.02 -10.81,14.79 -24.4,27.19 -40.66,37.1"
         fill="#1b2e37"
         fill-rule="nonzero"
         id="path67"
         transform="matrix(1.33333,0,0,-1.33333,6583.7673,1977.4364)" />
      <path
         clip-path="url(#clipPath70)"
         d="m 0.75,0.75 c 11.69,55.69 29.9,135.8 29.9,238.12 v 8.28 H 202.57 V -99.43 H -29 c 11.91,29.18 21.87,62.7 29.75,100.18 M 369.7,-99.44 h -42 v 435.88 c 0,15.23 -12.35,27.59 -27.59,27.59 h -367 c -15.24,0 -27.59,-12.36 -27.59,-27.59 v -91.12 c 0,-107.68 -18.14,-188.31 -29.71,-239.65 -9.67,-42.88 -21.28,-78.14 -34.61,-105.11 h -31.21 c -15.23,0 -27.58,-12.35 -27.58,-27.58 v -185.1 c 0,-15.23 12.35,-27.58 27.58,-27.58 h 69.6 c 15.23,0 27.58,12.35 27.58,27.58 v 95.09 h 365.35 v -95.09 c 0,-15.23 12.36,-27.58 27.59,-27.58 h 69.59 c 15.23,0 27.59,12.35 27.59,27.58 v 185.1 c 0,15.23 -12.36,27.58 -27.59,27.58"
         fill="#1b2e37"
         fill-rule="nonzero"
         id="path69"
         transform="matrix(1.33333,0,0,-1.33333,7258.3973,2011.3464)" />
      <path
         clip-path="url(#clipPath72)"
         d="m 0.75,0.75 c 0,-59.61 -14.57,-106.02 -43.31,-137.93 -28.39,-31.52 -63.99,-46.84 -108.82,-46.84 -44.36,0 -79.78,15.38 -108.28,47.02 -28.85,32.03 -43.49,78.37 -43.49,137.75 0,59.59 14.67,105.97 43.61,137.87 28.63,31.56 64.48,46.9 109.6,46.9 44.09,0 79.26,-15.3 107.53,-46.8 C -13.77,106.81 0.75,60.39 0.75,0.75 m 49.46,216.21 c -52.08,55.27 -119.66,83.29 -200.87,83.29 -81.42,0 -149.23,-28 -201.54,-83.23 -51.9,-54.81 -78.22,-127.57 -78.22,-216.27 0,-88.45 26.31,-161.14 78.19,-216.06 52.31,-55.36 120.13,-83.43 201.57,-83.43 81.21,0 148.79,28.02 200.87,83.28 51.63,54.8 77.82,127.54 77.82,216.21 0,88.67 -26.19,161.41 -77.82,216.21 z"
         fill="#1b2e37"
         fill-rule="nonzero"
         id="path71"
         transform="matrix(1.33333,0,0,-1.33333,8413.6473,1914.3464)" />
      <path
         clip-path="url(#clipPath74)"
         d="m 0.75,0.75 -196.64,278.53 183.38,250.2 c 6.22,8.48 0.16,20.44 -10.36,20.44 h -122.39 c -4.16,0 -8.06,-2.01 -10.47,-5.4 L -311.25,325.99 h -73.92 v 196.34 c 0,15.26 -12.39,27.59 -27.59,27.59 h -69.58 c -15.27,0 -27.59,-12.33 -27.59,-27.59 V -3.55 c 0,-15.21 12.32,-27.59 27.59,-27.59 h 69.58 c 15.2,0 27.59,12.38 27.59,27.59 v 217.83 h 78.11 l 159.84,-231.99 c 3.01,-4.38 7.98,-6.99 13.29,-6.99 h 121.5 C 0.65,-24.7 8.3,-9.94 0.75,0.75"
         fill="#1b2e37"
         fill-rule="nonzero"
         id="path73"
         transform="matrix(1.33333,0,0,-1.33333,9373.8973,2259.2164)" />
      <path
         clip-path="url(#clipPath76)"
         d="m 0.75,0.75 c -39.18,0 -76.87,16.3 -103.69,44.94 -0.28,0.29 -0.54,0.58 -0.82,0.87 l -374.55,408.3 c -42.34,46.16 -39.25,117.9 6.91,160.25 46.16,42.34 117.89,39.24 160.25,-6.91 L -0.52,269.58 807.96,1186.76 c 41.41,46.98 113.08,51.5 160.08,10.08 46.98,-41.42 51.5,-113.09 10.08,-160.07 L 107.3,48.86 C 80.82,18.87 42.77,1.35 2.84,0.77 2.15,0.76 1.44,0.75 0.75,0.75"
         fill="#38747f"
         fill-rule="nonzero"
         id="path75"
         transform="matrix(1.33333,0,0,-1.33333,1290.57,3042.12)" />
      <path
         clip-path="url(#clipPath78)"
         d="m 0.75,0.75 h -510.91 c -37.89,0 -68.6,30.71 -68.6,68.6 v 0 c 0,37.89 30.71,68.61 68.6,68.61 H 0.75 c 37.89,0 68.6,-30.72 68.6,-68.61 v 0 C 69.35,31.46 38.64,0.75 0.75,0.75"
         fill="#1b2e37"
         fill-rule="nonzero"
         id="path77"
         transform="matrix(1.33333,0,0,-1.33333,1386.97,1800.77)"
         sodipodi:nodetypes="csssssssc" />
      <path
         clip-path="url(#clipPath80)"
         d="m 0.75,0.75 h -771.78 c -37.89,0 -68.6,30.71 -68.6,68.6 v 0 c 0,37.89 30.71,68.61 68.6,68.61 H 0.75 c 37.89,0 68.6,-30.72 68.6,-68.61 v 0 C 69.35,31.46 38.64,0.75 0.75,0.75"
         fill="#1b2e37"
         fill-rule="nonzero"
         id="path79"
         transform="matrix(1.33333,0,0,-1.33333,1734.8,1303.71)" />
      <path
         clip-path="url(#clipPath80-7)"
         d="m 0.75,0.75 h -771.78 c -37.89,0 -68.6,30.71 -68.6,68.6 v 0 c 0,37.89 30.71,68.61 68.6,68.61 H 0.75 c 37.89,0 68.6,-30.72 68.6,-68.61 v 0 C 69.35,31.46 38.64,0.75 0.75,0.75"
         fill="#1b2e37"
         fill-rule="nonzero"
         id="path79-9"
         transform="matrix(0,1.33333,1.2440678,0,2851.6511,2711.8888)" />
      <path
         clip-path="url(#clipPath82)"
         d="m 0.75,0.75 h -771.78 c -37.89,0 -68.6,30.71 -68.6,68.6 0,37.89 30.71,68.61 68.6,68.61 H 0.75 c 37.89,0 68.6,-30.72 68.6,-68.61 0,-37.88 -30.71,-68.6 -68.6,-68.6"
         fill="#1b2e37"
         fill-rule="nonzero"
         id="path81"
         transform="matrix(1.33333,0,0,-1.33333,1734.8,796.707)" />
      <path
         clip-path="url(#clipPath84)"
         d="m 0.75,0.75 v -917.08 c 0,-35.56 -28.81,-64.37 -64.37,-64.37 -35.56,0 -64.37,28.81 -64.37,64.37 v 891.39 l -54.07,57.02 -364.1,383.84 -84.54,89.14 h -1294.73 c -58.61,0 -106.3,-47.7 -106.3,-106.31 V -1644.4 c 0,-58.61 47.69,-106.31 106.3,-106.31 h 1255.18 c 35.56,0 64.38,-28.81 64.38,-64.37 0,-35.56 -28.82,-64.37 -64.38,-64.37 h -1255.18 c -129.6,0 -235.05,105.45 -235.05,235.05 V 398.75 c 0,129.6 105.45,235.05 235.05,235.05 h 1322.37 c 17.66,0 34.52,-7.24 46.72,-20.05 L -16.91,45.07 C -5.57,33.12 0.75,17.24 0.75,0.75"
         fill="#1b2e37"
         fill-rule="nonzero"
         id="path83"
         transform="matrix(1.33333,0,0,-1.33333,3022.99,913.154)"
         sodipodi:nodetypes="csssccccssssssssssssccc" />
      <path
         clip-path="url(#clipPath86)"
         d="M 0.75,0.75 H -299.1 c -35.43,0 -64.25,28.81 -64.25,64.25 v 319.59 z"
         fill="#38747f"
         fill-rule="nonzero"
         id="path85"
         transform="matrix(1.33333,0,0,-1.33333,2779.23,871.384)" />
      <path
         clip-path="url(#clipPath88)"
         d="m 0.75,0.75 c 0,-35.56 -28.81,-64.37 -64.37,-64.37 h -403.4 c -106.42,0 -192.99,86.56 -192.99,192.99 v 433.37 c 0,35.56 28.81,64.38 64.37,64.38 35.5,0 64.37,-28.82 64.37,-64.38 V 129.37 c 0,-35.43 28.82,-64.25 64.25,-64.25 h 403.4 c 35.56,0 64.37,-28.81 64.37,-64.37"
         fill="#1b2e37"
         fill-rule="nonzero"
         id="path87"
         transform="matrix(1.33333,0,0,-1.33333,3003.12,957.213)"
         sodipodi:nodetypes="csssssssssc" />
      <path
         clip-path="url(#clipPath88-7)"
         d="m 0.75,0.75 c 0,-35.56 -28.81,-64.37 -64.37,-64.37 h -403.4 c -106.42,0 -193.17052,86.560158 -192.99,192.99 l 0.8181,482.33817 c 0.0603,35.55994 27.9919,15.41183 63.5519,15.41183 35.5,0 63.19864,-21.67278 63.28613,-57.23267 L -531.27,129.37 c 0.0872,-35.42989 28.82,-64.25 64.25,-64.25 h 403.4 c 35.56,0 64.37,-28.81 64.37,-64.37"
         fill="#1b2e37"
         fill-rule="nonzero"
         id="path87-8"
         transform="matrix(0,-1.3588624,-1.339436,0,2937.4742,2520.4402)"
         sodipodi:nodetypes="csssssssssc" />
    </g>
  </g>
</svg>
